<?xml version="1.0" encoding="UTF-8"?>
<!DOCTYPE svg PUBLIC "-//W3C//DTD SVG 1.1//EN" "http://www.w3.org/Graphics/SVG/1.1/DTD/svg11.dtd">
<svg xmlns="http://www.w3.org/2000/svg" version="1.1" width="1366px" height="768px" style="shape-rendering:geometricPrecision; text-rendering:geometricPrecision; image-rendering:optimizeQuality; fill-rule:evenodd; clip-rule:evenodd" xmlns:xlink="http://www.w3.org/1999/xlink">
<g><path style="opacity:0.973" fill="#3892c6" d="M 767.5,144.5 C 765.632,145.263 763.965,146.263 762.5,147.5C 760.821,147.285 759.821,147.952 759.5,149.5C 757.973,149.427 756.973,150.094 756.5,151.5C 754.302,151.12 752.635,151.787 751.5,153.5C 750.5,153.833 749.833,154.5 749.5,155.5C 746.031,154.887 744.031,156.221 743.5,159.5C 741.901,159.232 740.568,159.566 739.5,160.5C 738.128,161.512 736.795,162.512 735.5,163.5C 733.517,163.157 732.183,163.824 731.5,165.5C 730.29,165.932 729.29,166.599 728.5,167.5C 725.05,166.756 723.384,168.09 723.5,171.5C 721.901,171.232 720.568,171.566 719.5,172.5C 717.77,173.026 716.436,174.026 715.5,175.5C 713.517,175.157 712.183,175.824 711.5,177.5C 709.973,177.427 708.973,178.094 708.5,179.5C 706.302,179.12 704.635,179.787 703.5,181.5C 702.5,181.833 701.833,182.5 701.5,183.5C 694.852,185.655 688.519,188.655 682.5,192.5C 674.932,188.555 667.598,184.388 660.5,180C 658.866,179.506 657.199,179.34 655.5,179.5C 655.719,178.325 655.386,177.325 654.5,176.5C 649.941,173.431 645.275,170.598 640.5,168C 638.866,167.506 637.199,167.34 635.5,167.5C 635.719,166.325 635.386,165.325 634.5,164.5C 626.999,160.469 619.665,156.302 612.5,152C 610.866,151.506 609.199,151.34 607.5,151.5C 607.719,150.325 607.386,149.325 606.5,148.5C 592.669,140.419 579.002,132.085 565.5,123.5C 604.336,100.581 643.336,77.9142 682.5,55.5C 721.176,77.8373 759.843,100.171 798.5,122.5C 799.711,123.274 799.711,124.107 798.5,125C 789.833,130 781.167,135 772.5,140C 771.663,141.011 771.33,142.178 771.5,143.5C 769.901,143.232 768.568,143.566 767.5,144.5 Z"/></g>
<g><path style="opacity:0.974" fill="#377599" d="M 565.5,139.5 C 565.518,185.345 565.518,231.011 565.5,276.5C 564.306,277.272 563.306,278.272 562.5,279.5C 561.209,279.263 560.209,279.596 559.5,280.5C 558.128,281.512 556.795,282.512 555.5,283.5C 553.517,283.157 552.183,283.824 551.5,285.5C 550.29,285.932 549.29,286.599 548.5,287.5C 545.05,286.756 543.384,288.09 543.5,291.5C 541.901,291.232 540.568,291.566 539.5,292.5C 537.77,293.026 536.436,294.026 535.5,295.5C 533.517,295.157 532.183,295.824 531.5,297.5C 530.29,297.932 529.29,298.599 528.5,299.5C 525.05,298.756 523.384,300.09 523.5,303.5C 521.901,303.232 520.568,303.566 519.5,304.5C 517.77,305.026 516.436,306.026 515.5,307.5C 513.517,307.157 512.183,307.824 511.5,309.5C 510.29,309.932 509.29,310.599 508.5,311.5C 505.05,310.756 503.384,312.09 503.5,315.5C 501.901,315.232 500.568,315.566 499.5,316.5C 497.632,317.263 495.965,318.263 494.5,319.5C 492.821,319.285 491.821,319.952 491.5,321.5C 489.973,321.427 488.973,322.094 488.5,323.5C 485.575,323.46 482.909,324.293 480.5,326C 470.962,331.597 461.629,337.43 452.5,343.5C 490.003,365.419 527.67,387.086 565.5,408.5C 554.856,415.493 543.856,421.993 532.5,428C 531.663,429.011 531.33,430.178 531.5,431.5C 529.473,431.338 527.473,431.505 525.5,432C 524.027,432.71 523.36,433.876 523.5,435.5C 521.901,435.232 520.568,435.566 519.5,436.5C 518.128,437.512 516.795,438.512 515.5,439.5C 513.517,439.157 512.183,439.824 511.5,441.5C 510.29,441.932 509.29,442.599 508.5,443.5C 506.302,443.12 504.635,443.787 503.5,445.5C 502.5,445.833 501.833,446.5 501.5,447.5C 498.031,446.887 496.031,448.221 495.5,451.5C 493.901,451.232 492.568,451.566 491.5,452.5C 489.77,453.026 488.436,454.026 487.5,455.5C 483.219,456.136 479.219,457.636 475.5,460C 467.081,464.96 458.581,469.793 450,474.5C 449.333,385.5 449.333,296.5 450,207.5C 488.848,184.528 527.348,161.861 565.5,139.5 Z"/></g>
<g><path style="opacity:0.983" fill="#377599" d="M 798.5,138.5 C 798.172,184.239 798.505,229.905 799.5,275.5C 796.5,275.167 795.167,276.5 795.5,279.5C 793.901,279.232 792.568,279.566 791.5,280.5C 789.632,281.263 787.965,282.263 786.5,283.5C 784.821,283.285 783.821,283.952 783.5,285.5C 781.847,285.66 780.514,286.326 779.5,287.5C 777.62,287.229 776.287,287.896 775.5,289.5C 774.5,289.833 773.833,290.5 773.5,291.5C 770.031,290.887 768.031,292.221 767.5,295.5C 765.517,295.157 764.183,295.824 763.5,297.5C 761.847,297.66 760.514,298.326 759.5,299.5C 757.517,299.157 756.183,299.824 755.5,301.5C 754.29,301.932 753.29,302.599 752.5,303.5C 749.412,303.197 747.746,304.53 747.5,307.5C 745.901,307.232 744.568,307.566 743.5,308.5C 742.128,309.512 740.795,310.512 739.5,311.5C 737.517,311.157 736.183,311.824 735.5,313.5C 734.29,313.932 733.29,314.599 732.5,315.5C 729.05,314.756 727.384,316.09 727.5,319.5C 725.901,319.232 724.568,319.566 723.5,320.5C 721.77,321.026 720.436,322.026 719.5,323.5C 717.517,323.157 716.183,323.824 715.5,325.5C 713.973,325.427 712.973,326.094 712.5,327.5C 709.05,326.756 707.384,328.09 707.5,331.5C 705.901,331.232 704.568,331.566 703.5,332.5C 701.632,333.263 699.965,334.263 698.5,335.5C 693.188,336.987 688.188,339.32 683.5,342.5C 682.893,342.376 682.56,342.043 682.5,341.5C 682.5,296.167 682.5,250.833 682.5,205.5C 721.167,183.167 759.833,160.833 798.5,138.5 Z"/></g>
<g><path style="opacity:0.986" fill="#3891c5" d="M 565.5,139.5 C 604.629,161.232 643.629,183.232 682.5,205.5C 682.5,250.833 682.5,296.167 682.5,341.5C 676.324,338.58 670.324,335.413 664.5,332C 662.866,331.506 661.199,331.34 659.5,331.5C 659.719,330.325 659.386,329.325 658.5,328.5C 650.999,324.469 643.665,320.302 636.5,316C 634.866,315.506 633.199,315.34 631.5,315.5C 631.719,314.325 631.386,313.325 630.5,312.5C 622.999,308.469 615.665,304.302 608.5,300C 606.866,299.506 605.199,299.34 603.5,299.5C 603.719,298.325 603.386,297.325 602.5,296.5C 594.999,292.469 587.665,288.302 580.5,284C 578.866,283.506 577.199,283.34 575.5,283.5C 574.969,280.221 572.969,278.887 569.5,279.5C 568.564,278.026 567.23,277.026 565.5,276.5C 565.518,231.011 565.518,185.345 565.5,139.5 Z"/></g>
<g><path style="opacity:0.98" fill="#3892c6" d="M 798.5,138.5 C 837.446,160.94 876.279,183.606 915,206.5C 915.75,293.167 916.083,379.834 916,466.5C 913.33,467.224 911.83,468.891 911.5,471.5C 909.901,471.232 908.568,471.566 907.5,472.5C 906.128,473.512 904.795,474.512 903.5,475.5C 901.517,475.157 900.183,475.824 899.5,477.5C 898.29,477.932 897.29,478.599 896.5,479.5C 893.05,478.756 891.384,480.09 891.5,483.5C 889.473,483.338 887.473,483.505 885.5,484C 884.027,484.71 883.36,485.876 883.5,487.5C 881.901,487.232 880.568,487.566 879.5,488.5C 877.77,489.026 876.436,490.026 875.5,491.5C 873.517,491.157 872.183,491.824 871.5,493.5C 869.973,493.427 868.973,494.094 868.5,495.5C 866.302,495.12 864.635,495.787 863.5,497.5C 862.5,497.833 861.833,498.5 861.5,499.5C 858.031,498.887 856.031,500.221 855.5,503.5C 853.901,503.232 852.568,503.566 851.5,504.5C 849.77,505.026 848.436,506.026 847.5,507.5C 845.517,507.157 844.183,507.824 843.5,509.5C 841.973,509.427 840.973,510.094 840.5,511.5C 838.302,511.12 836.635,511.787 835.5,513.5C 834.29,513.932 833.29,514.599 832.5,515.5C 829.412,515.197 827.746,516.53 827.5,519.5C 825.901,519.232 824.568,519.566 823.5,520.5C 821.632,521.263 819.965,522.263 818.5,523.5C 816.821,523.285 815.821,523.952 815.5,525.5C 813.847,525.66 812.514,526.326 811.5,527.5C 809.517,527.157 808.183,527.824 807.5,529.5C 806.29,529.932 805.29,530.599 804.5,531.5C 801.05,530.756 799.384,532.09 799.5,535.5C 797.901,535.232 796.568,535.566 795.5,536.5C 793.632,537.263 791.965,538.263 790.5,539.5C 788.821,539.285 787.821,539.952 787.5,541.5C 785.847,541.66 784.514,542.326 783.5,543.5C 781.517,543.157 780.183,543.824 779.5,545.5C 778.29,545.932 777.29,546.599 776.5,547.5C 773.05,546.756 771.384,548.09 771.5,551.5C 769.473,551.338 767.473,551.505 765.5,552C 764.027,552.71 763.36,553.876 763.5,555.5C 761.901,555.232 760.568,555.566 759.5,556.5C 758.128,557.512 756.795,558.512 755.5,559.5C 753.517,559.157 752.183,559.824 751.5,561.5C 750.29,561.932 749.29,562.599 748.5,563.5C 745.05,562.756 743.384,564.09 743.5,567.5C 741.473,567.338 739.473,567.505 737.5,568C 736.027,568.71 735.36,569.876 735.5,571.5C 733.901,571.232 732.568,571.566 731.5,572.5C 729.77,573.026 728.436,574.026 727.5,575.5C 725.517,575.157 724.183,575.824 723.5,577.5C 721.973,577.427 720.973,578.094 720.5,579.5C 718.302,579.12 716.635,579.787 715.5,581.5C 714.5,581.833 713.833,582.5 713.5,583.5C 710.031,582.887 708.031,584.221 707.5,587.5C 705.901,587.232 704.568,587.566 703.5,588.5C 701.77,589.026 700.436,590.026 699.5,591.5C 693.133,592.933 687.299,595.599 682,599.5C 674.009,594.763 666.175,589.929 658.5,585C 656.323,583.798 653.989,583.298 651.5,583.5C 651.67,582.178 651.337,581.011 650.5,580C 645.785,577.333 641.118,574.666 636.5,572C 634.866,571.506 633.199,571.34 631.5,571.5C 631.67,570.178 631.337,569.011 630.5,568C 625.785,565.333 621.118,562.666 616.5,560C 614.866,559.506 613.199,559.34 611.5,559.5C 611.67,558.178 611.337,557.011 610.5,556C 598.707,549.041 587.04,541.874 575.5,534.5C 687.969,470.096 800.635,405.929 913.5,342C 900.992,334.915 888.659,327.581 876.5,320C 874.866,319.506 873.199,319.34 871.5,319.5C 871.719,318.325 871.386,317.325 870.5,316.5C 862.999,312.469 855.665,308.302 848.5,304C 846.866,303.506 845.199,303.34 843.5,303.5C 843.719,302.325 843.386,301.325 842.5,300.5C 837.941,297.431 833.275,294.598 828.5,292C 826.866,291.506 825.199,291.34 823.5,291.5C 823.719,290.325 823.386,289.325 822.5,288.5C 814.777,284.074 807.11,279.741 799.5,275.5C 798.505,229.905 798.172,184.239 798.5,138.5 Z"/></g>
<g><path style="opacity:0.006" fill="#fdfefc" d="M 767.5,144.5 C 767.5,145.5 767.5,146.5 767.5,147.5C 765.833,147.5 764.167,147.5 762.5,147.5C 763.965,146.263 765.632,145.263 767.5,144.5 Z"/></g>
<g><path style="opacity:0.012" fill="#fdfefc" d="M 759.5,149.5 C 759.179,151.048 758.179,151.715 756.5,151.5C 756.973,150.094 757.973,149.427 759.5,149.5 Z"/></g>
<g><path style="opacity:0.012" fill="#fdfefc" d="M 751.5,153.5 C 751.5,154.833 750.833,155.5 749.5,155.5C 749.833,154.5 750.5,153.833 751.5,153.5 Z"/></g>
<g><path style="opacity:0.012" fill="#fdfefc" d="M 739.5,160.5 C 739.5,161.5 739.5,162.5 739.5,163.5C 738.167,163.5 736.833,163.5 735.5,163.5C 736.795,162.512 738.128,161.512 739.5,160.5 Z"/></g>
<g><path style="opacity:0.012" fill="#fdfefc" d="M 731.5,165.5 C 731.179,167.048 730.179,167.715 728.5,167.5C 729.29,166.599 730.29,165.932 731.5,165.5 Z"/></g>
<g><path style="opacity:0.008" fill="#fdfefc" d="M 719.5,172.5 C 719.5,173.5 719.5,174.5 719.5,175.5C 718.167,175.5 716.833,175.5 715.5,175.5C 716.436,174.026 717.77,173.026 719.5,172.5 Z"/></g>
<g><path style="opacity:0.012" fill="#fdfefc" d="M 711.5,177.5 C 711.179,179.048 710.179,179.715 708.5,179.5C 708.973,178.094 709.973,177.427 711.5,177.5 Z"/></g>
<g><path style="opacity:0.012" fill="#fdfefc" d="M 703.5,181.5 C 703.5,182.833 702.833,183.5 701.5,183.5C 701.833,182.5 702.5,181.833 703.5,181.5 Z"/></g>
<g><path style="opacity:0.005" fill="#fdfefc" d="M 565.5,276.5 C 567.23,277.026 568.564,278.026 569.5,279.5C 567.167,279.5 564.833,279.5 562.5,279.5C 563.306,278.272 564.306,277.272 565.5,276.5 Z"/></g>
<g><path style="opacity:0.012" fill="#fdfefc" d="M 559.5,280.5 C 559.5,281.5 559.5,282.5 559.5,283.5C 558.167,283.5 556.833,283.5 555.5,283.5C 556.795,282.512 558.128,281.512 559.5,280.5 Z"/></g>
<g><path style="opacity:0.005" fill="#fdfefc" d="M 791.5,280.5 C 791.5,281.5 791.5,282.5 791.5,283.5C 789.833,283.5 788.167,283.5 786.5,283.5C 787.965,282.263 789.632,281.263 791.5,280.5 Z"/></g>
<g><path style="opacity:0.012" fill="#fdfefc" d="M 551.5,285.5 C 551.179,287.048 550.179,287.715 548.5,287.5C 549.29,286.599 550.29,285.932 551.5,285.5 Z"/></g>
<g><path style="opacity:0.012" fill="#fdfefc" d="M 783.5,285.5 C 782.817,287.176 781.483,287.843 779.5,287.5C 780.514,286.326 781.847,285.66 783.5,285.5 Z"/></g>
<g><path style="opacity:0.012" fill="#fdfefc" d="M 775.5,289.5 C 775.5,290.833 774.833,291.5 773.5,291.5C 773.833,290.5 774.5,289.833 775.5,289.5 Z"/></g>
<g><path style="opacity:0.012" fill="#fdfefc" d="M 539.5,292.5 C 539.5,293.5 539.5,294.5 539.5,295.5C 538.167,295.5 536.833,295.5 535.5,295.5C 536.436,294.026 537.77,293.026 539.5,292.5 Z"/></g>
<g><path style="opacity:0.012" fill="#fdfefc" d="M 531.5,297.5 C 531.179,299.048 530.179,299.715 528.5,299.5C 529.29,298.599 530.29,297.932 531.5,297.5 Z"/></g>
<g><path style="opacity:0.012" fill="#fdfefc" d="M 763.5,297.5 C 762.817,299.176 761.483,299.843 759.5,299.5C 760.514,298.326 761.847,297.66 763.5,297.5 Z"/></g>
<g><path style="opacity:0.012" fill="#fdfefc" d="M 755.5,301.5 C 755.179,303.048 754.179,303.715 752.5,303.5C 753.29,302.599 754.29,301.932 755.5,301.5 Z"/></g>
<g><path style="opacity:0.004" fill="#fdfefc" d="M 519.5,304.5 C 519.5,305.5 519.5,306.5 519.5,307.5C 518.167,307.5 516.833,307.5 515.5,307.5C 516.436,306.026 517.77,305.026 519.5,304.5 Z"/></g>
<g><path style="opacity:0.012" fill="#fdfefc" d="M 743.5,308.5 C 743.5,309.5 743.5,310.5 743.5,311.5C 742.167,311.5 740.833,311.5 739.5,311.5C 740.795,310.512 742.128,309.512 743.5,308.5 Z"/></g>
<g><path style="opacity:0.012" fill="#fdfefc" d="M 511.5,309.5 C 511.179,311.048 510.179,311.715 508.5,311.5C 509.29,310.599 510.29,309.932 511.5,309.5 Z"/></g>
<g><path style="opacity:0.012" fill="#fdfefc" d="M 735.5,313.5 C 735.179,315.048 734.179,315.715 732.5,315.5C 733.29,314.599 734.29,313.932 735.5,313.5 Z"/></g>
<g><path style="opacity:0.005" fill="#fdfefc" d="M 499.5,316.5 C 499.5,317.5 499.5,318.5 499.5,319.5C 497.833,319.5 496.167,319.5 494.5,319.5C 495.965,318.263 497.632,317.263 499.5,316.5 Z"/></g>
<g><path style="opacity:0.004" fill="#fdfefc" d="M 723.5,320.5 C 723.5,321.5 723.5,322.5 723.5,323.5C 722.167,323.5 720.833,323.5 719.5,323.5C 720.436,322.026 721.77,321.026 723.5,320.5 Z"/></g>
<g><path style="opacity:0.012" fill="#fdfefc" d="M 491.5,321.5 C 491.179,323.048 490.179,323.715 488.5,323.5C 488.973,322.094 489.973,321.427 491.5,321.5 Z"/></g>
<g><path style="opacity:0.012" fill="#fdfefc" d="M 715.5,325.5 C 715.179,327.048 714.179,327.715 712.5,327.5C 712.973,326.094 713.973,325.427 715.5,325.5 Z"/></g>
<g><path style="opacity:0.004" fill="#fdfefc" d="M 703.5,332.5 C 703.5,333.5 703.5,334.5 703.5,335.5C 701.833,335.5 700.167,335.5 698.5,335.5C 699.965,334.263 701.632,333.263 703.5,332.5 Z"/></g>
<g><path style="opacity:0.012" fill="#fdfefc" d="M 519.5,436.5 C 519.5,437.5 519.5,438.5 519.5,439.5C 518.167,439.5 516.833,439.5 515.5,439.5C 516.795,438.512 518.128,437.512 519.5,436.5 Z"/></g>
<g><path style="opacity:0.012" fill="#fdfefc" d="M 511.5,441.5 C 511.179,443.048 510.179,443.715 508.5,443.5C 509.29,442.599 510.29,441.932 511.5,441.5 Z"/></g>
<g><path style="opacity:0.012" fill="#fdfefc" d="M 503.5,445.5 C 503.5,446.833 502.833,447.5 501.5,447.5C 501.833,446.5 502.5,445.833 503.5,445.5 Z"/></g>
<g><path style="opacity:0.004" fill="#fdfefc" d="M 491.5,452.5 C 491.5,453.5 491.5,454.5 491.5,455.5C 490.167,455.5 488.833,455.5 487.5,455.5C 488.436,454.026 489.77,453.026 491.5,452.5 Z"/></g>
<g><path style="opacity:0.012" fill="#fdfefc" d="M 907.5,472.5 C 907.5,473.5 907.5,474.5 907.5,475.5C 906.167,475.5 904.833,475.5 903.5,475.5C 904.795,474.512 906.128,473.512 907.5,472.5 Z"/></g>
<g><path style="opacity:0.012" fill="#fdfefc" d="M 899.5,477.5 C 899.179,479.048 898.179,479.715 896.5,479.5C 897.29,478.599 898.29,477.932 899.5,477.5 Z"/></g>
<g><path style="opacity:0.012" fill="#fdfefc" d="M 879.5,488.5 C 879.5,489.5 879.5,490.5 879.5,491.5C 878.167,491.5 876.833,491.5 875.5,491.5C 876.436,490.026 877.77,489.026 879.5,488.5 Z"/></g>
<g><path style="opacity:0.012" fill="#fdfefc" d="M 871.5,493.5 C 871.179,495.048 870.179,495.715 868.5,495.5C 868.973,494.094 869.973,493.427 871.5,493.5 Z"/></g>
<g><path style="opacity:0.012" fill="#fdfefc" d="M 863.5,497.5 C 863.5,498.833 862.833,499.5 861.5,499.5C 861.833,498.5 862.5,497.833 863.5,497.5 Z"/></g>
<g><path style="opacity:0.012" fill="#fdfefc" d="M 851.5,504.5 C 851.5,505.5 851.5,506.5 851.5,507.5C 850.167,507.5 848.833,507.5 847.5,507.5C 848.436,506.026 849.77,505.026 851.5,504.5 Z"/></g>
<g><path style="opacity:0.012" fill="#fdfefc" d="M 843.5,509.5 C 843.179,511.048 842.179,511.715 840.5,511.5C 840.973,510.094 841.973,509.427 843.5,509.5 Z"/></g>
<g><path style="opacity:0.012" fill="#fdfefc" d="M 835.5,513.5 C 835.179,515.048 834.179,515.715 832.5,515.5C 833.29,514.599 834.29,513.932 835.5,513.5 Z"/></g>
<g><path style="opacity:0.009" fill="#fdfefc" d="M 823.5,520.5 C 823.5,521.5 823.5,522.5 823.5,523.5C 821.833,523.5 820.167,523.5 818.5,523.5C 819.965,522.263 821.632,521.263 823.5,520.5 Z"/></g>
<g><path style="opacity:0.012" fill="#fdfefc" d="M 815.5,525.5 C 814.817,527.176 813.483,527.843 811.5,527.5C 812.514,526.326 813.847,525.66 815.5,525.5 Z"/></g>
<g><path style="opacity:0.012" fill="#fdfefc" d="M 807.5,529.5 C 807.179,531.048 806.179,531.715 804.5,531.5C 805.29,530.599 806.29,529.932 807.5,529.5 Z"/></g>
<g><path style="opacity:0.005" fill="#fdfefc" d="M 795.5,536.5 C 795.5,537.5 795.5,538.5 795.5,539.5C 793.833,539.5 792.167,539.5 790.5,539.5C 791.965,538.263 793.632,537.263 795.5,536.5 Z"/></g>
<g><path style="opacity:0.012" fill="#fdfefc" d="M 787.5,541.5 C 786.817,543.176 785.483,543.843 783.5,543.5C 784.514,542.326 785.847,541.66 787.5,541.5 Z"/></g>
<g><path style="opacity:0.012" fill="#fdfefc" d="M 779.5,545.5 C 779.179,547.048 778.179,547.715 776.5,547.5C 777.29,546.599 778.29,545.932 779.5,545.5 Z"/></g>
<g><path style="opacity:0.012" fill="#fdfefc" d="M 759.5,556.5 C 759.5,557.5 759.5,558.5 759.5,559.5C 758.167,559.5 756.833,559.5 755.5,559.5C 756.795,558.512 758.128,557.512 759.5,556.5 Z"/></g>
<g><path style="opacity:0.012" fill="#fdfefc" d="M 751.5,561.5 C 751.179,563.048 750.179,563.715 748.5,563.5C 749.29,562.599 750.29,561.932 751.5,561.5 Z"/></g>
<g><path style="opacity:0.012" fill="#fdfefc" d="M 731.5,572.5 C 731.5,573.5 731.5,574.5 731.5,575.5C 730.167,575.5 728.833,575.5 727.5,575.5C 728.436,574.026 729.77,573.026 731.5,572.5 Z"/></g>
<g><path style="opacity:0.012" fill="#fdfefc" d="M 723.5,577.5 C 723.179,579.048 722.179,579.715 720.5,579.5C 720.973,578.094 721.973,577.427 723.5,577.5 Z"/></g>
<g><path style="opacity:0.012" fill="#fdfefc" d="M 715.5,581.5 C 715.5,582.833 714.833,583.5 713.5,583.5C 713.833,582.5 714.5,581.833 715.5,581.5 Z"/></g>
<g><path style="opacity:0.012" fill="#fdfefc" d="M 703.5,588.5 C 703.5,589.5 703.5,590.5 703.5,591.5C 702.167,591.5 700.833,591.5 699.5,591.5C 700.436,590.026 701.77,589.026 703.5,588.5 Z"/></g>
</svg>